<svg width="174" height="158" viewBox="0 0 174 158" fill="none" xmlns="http://www.w3.org/2000/svg">
<circle cx="76" cy="76" r="76" transform="matrix(-1 0 0 1 171 3)" fill="#2AAF3F" fill-opacity="0.4"/>
<ellipse cx="64" cy="63.5" rx="64" ry="63.5" transform="matrix(-1 0 0 1 160 16)" fill="#5BD16E"/>
<path d="M80.708 108.083H110.291C122.125 108.083 125.083 105.125 125.083 93.2916V87.3749C125.083 75.5416 122.125 72.5833 110.291 72.5833H80.708C68.8747 72.5833 65.9163 75.5416 65.9163 87.3749V93.2916C65.9163 105.125 68.8747 108.083 80.708 108.083Z" stroke="white" stroke-width="1.5" stroke-linecap="round" stroke-linejoin="round"/>
<path d="M113.25 72.5834V66.6667C113.25 56.8747 110.292 48.9167 95.5 48.9167C82.1875 48.9167 77.75 54.8334 77.75 63.7084" stroke="white" stroke-width="1.5" stroke-linecap="round" stroke-linejoin="round"/>
<path d="M95.4997 97.7292C91.4151 97.7292 88.1038 94.4179 88.1038 90.3333C88.1038 86.2487 91.4151 82.9375 95.4997 82.9375C99.5843 82.9375 102.896 86.2487 102.896 90.3333C102.896 94.4179 99.5843 97.7292 95.4997 97.7292Z" stroke="white" stroke-width="1.5" stroke-linecap="round" stroke-linejoin="round"/>
</svg>
