<svg width="158" height="158" viewBox="0 0 158 158" fill="none" xmlns="http://www.w3.org/2000/svg">
<circle cx="79" cy="79" r="76" fill="#F27B6F" fill-opacity="0.4"/>
<ellipse cx="78" cy="79.5" rx="64" ry="63.5" fill="#F27B6F"/>
<path d="M71.2915 84.9687C71.2915 88 73.604 90.4375 76.4407 90.4375H82.2373C84.704 90.4375 86.7082 88.3125 86.7082 85.6562C86.7082 82.8125 85.4749 81.7812 83.6557 81.125L74.3748 77.8437C72.5557 77.1875 71.3224 76.1875 71.3224 73.3125C71.3224 70.6875 73.3265 68.5312 75.7931 68.5312H81.5898C84.4265 68.5312 86.739 70.9687 86.739 74" stroke="white" stroke-width="1.5" stroke-linecap="round" stroke-linejoin="round"/>
<path d="M79 65.4375V93.5625" stroke="white" stroke-width="1.5" stroke-linecap="round" stroke-linejoin="round"/>
<path d="M109.833 79.5C109.833 96.75 96.0198 110.75 78.9998 110.75C61.9798 110.75 48.1665 96.75 48.1665 79.5C48.1665 62.25 61.9798 48.25 78.9998 48.25" stroke="white" stroke-width="1.5" stroke-linecap="round" stroke-linejoin="round"/>
<path d="M94.4165 51.375V63.875H106.75" stroke="white" stroke-width="1.5" stroke-linecap="round" stroke-linejoin="round"/>
<path d="M109.833 48.25L94.4165 63.875" stroke="white" stroke-width="1.5" stroke-linecap="round" stroke-linejoin="round"/>
</svg>
