<svg width="63" height="20" viewBox="0 0 63 20" fill="none" xmlns="http://www.w3.org/2000/svg">
<path d="M7.93474 19.4666C6.3229 19.4666 4.921 19.1754 3.72903 18.593C2.53707 17.997 1.62278 17.1572 0.986171 16.0736C0.349558 14.99 0.03125 13.7303 0.03125 12.2945C0.03125 10.3034 0.403736 8.53581 1.14871 6.99168C1.90723 5.44756 2.92988 4.25559 4.21665 3.41581C5.50341 2.56248 6.93243 2.13581 8.50363 2.13581C9.96649 2.13581 11.0772 2.51507 11.8357 3.27359C12.5942 4.01857 12.9735 5.00733 12.9735 6.23994C12.9735 7.06619 12.8245 7.72987 12.5265 8.23105C12.242 8.73222 11.8289 8.98279 11.2871 8.98279C10.9079 8.98279 10.6099 8.89476 10.3932 8.71867C10.1764 8.54257 10.0681 8.28524 10.0681 7.9466C10.0681 7.8247 10.0952 7.60121 10.1493 7.27613C10.2306 6.86978 10.2713 6.5447 10.2713 6.30089C10.2713 5.06829 9.61433 4.452 8.30046 4.452C7.40649 4.452 6.55315 4.74321 5.74046 5.32565C4.92776 5.90809 4.27084 6.76819 3.76966 7.90597C3.26849 9.03019 3.01792 10.3711 3.01792 11.9288C3.01792 13.5542 3.47166 14.8139 4.37919 15.7079C5.28671 16.5883 6.62766 17.0285 8.40204 17.0285C9.28246 17.0285 10.1697 16.9202 11.0636 16.7034C11.9712 16.4732 12.9735 16.1278 14.0706 15.6672C14.2738 15.586 14.4431 15.5453 14.5786 15.5453C14.7953 15.5453 14.9578 15.6266 15.0662 15.7891C15.1745 15.9517 15.2287 16.1616 15.2287 16.419C15.2287 17.2452 14.7817 17.8548 13.8878 18.2476C12.9261 18.6675 11.9237 18.979 10.8808 19.1822C9.85135 19.3718 8.86935 19.4666 7.93474 19.4666ZM21.3351 14.8342C21.5112 14.8342 21.6466 14.9155 21.7414 15.078C21.8498 15.2406 21.9039 15.4641 21.9039 15.7485C21.9039 16.2903 21.7753 16.7102 21.5179 17.0082C20.9355 17.7261 20.2989 18.3153 19.6081 18.7758C18.9308 19.2363 18.1588 19.4666 17.2919 19.4666C16.0999 19.4666 15.2127 18.9248 14.6303 17.8412C14.0614 16.7576 13.777 15.3557 13.777 13.6355C13.777 11.983 13.9869 10.1003 14.4068 7.98724C14.8402 5.87422 15.4701 4.05921 16.2963 2.54216C17.1361 1.02512 18.1317 0.266602 19.283 0.266602C19.9332 0.266602 20.4411 0.571365 20.8068 1.18089C21.1861 1.77687 21.3757 2.63697 21.3757 3.76121C21.3757 5.37305 20.9287 7.24225 20.0347 9.36882C19.1408 11.4954 17.9285 13.6016 16.3979 15.6876C16.4927 16.2429 16.6485 16.6425 16.8652 16.8863C17.0819 17.1165 17.3664 17.2317 17.7186 17.2317C18.2739 17.2317 18.7615 17.0759 19.1814 16.7644C19.6013 16.4393 20.1363 15.8907 20.7865 15.1187C20.949 14.929 21.1319 14.8342 21.3351 14.8342ZM18.836 2.27803C18.5245 2.27803 18.1723 2.84015 17.7795 3.96438C17.3867 5.0886 17.0413 6.48375 16.7433 8.14978C16.4453 9.81581 16.2828 11.4141 16.2557 12.9447C17.2174 11.3599 17.9827 9.77517 18.5516 8.19041C19.1205 6.59209 19.4049 5.13603 19.4049 3.82216C19.4049 2.79274 19.2153 2.27803 18.836 2.27803ZM22.3341 19.4666C21.7246 19.4666 21.2234 19.1889 20.8306 18.6336C20.4513 18.0647 20.2617 17.3603 20.2617 16.5206C20.2617 15.5047 20.3294 14.5769 20.4649 13.7371C20.6004 12.8837 20.8239 11.983 21.1354 11.0349C21.2708 10.6285 21.4605 10.3373 21.7043 10.1612C21.9481 9.98511 22.3341 9.89708 22.8624 9.89708C23.1604 9.89708 23.3635 9.94448 23.4719 10.0393C23.5938 10.1341 23.6547 10.2763 23.6547 10.466C23.6547 10.5743 23.5802 10.94 23.4312 11.5631C23.2958 12.0643 23.1874 12.518 23.1062 12.9244C22.8353 14.3466 22.6998 15.2948 22.6998 15.7688C22.6998 16.0533 22.7337 16.2564 22.8014 16.3783C22.8691 16.4867 22.9775 16.5409 23.1265 16.5409C23.3297 16.5409 23.5802 16.3377 23.8782 15.9314C24.1898 15.525 24.5148 14.9087 24.8535 14.0825C25.2056 13.2562 25.5443 12.2403 25.8693 11.0349C25.9777 10.6285 26.1402 10.3373 26.357 10.1612C26.5872 9.98511 26.9259 9.89708 27.3728 9.89708C27.6844 9.89708 27.9011 9.93771 28.023 10.019C28.1449 10.0867 28.2059 10.2222 28.2059 10.4253C28.2059 10.764 28.0366 11.6918 27.6979 13.2088C27.3186 14.9426 27.129 16.0126 27.129 16.419C27.129 16.6763 27.1832 16.8795 27.2916 17.0285C27.3999 17.164 27.5421 17.2317 27.7182 17.2317C27.9891 17.2317 28.3074 17.0691 28.6732 16.7441C29.0524 16.4054 29.5536 15.8637 30.1766 15.1187C30.3392 14.929 30.522 14.8342 30.7252 14.8342C30.9013 14.8342 31.0367 14.9155 31.1316 15.078C31.2399 15.2406 31.2941 15.4641 31.2941 15.7485C31.2941 16.2903 31.1654 16.7102 30.9081 17.0082C30.3256 17.7261 29.6958 18.3153 29.0186 18.7758C28.3548 19.2363 27.5963 19.4666 26.743 19.4666C26.0928 19.4666 25.612 19.216 25.3005 18.7149C25.0025 18.2137 24.8535 17.5094 24.8535 16.6018C24.6232 17.5229 24.2778 18.234 23.8173 18.7352C23.3567 19.2228 22.8624 19.4666 22.3341 19.4666ZM33.4259 19.9136C32.7214 19.9136 32.1795 19.751 31.8005 19.426C31.4346 19.1009 31.2517 18.7352 31.2517 18.3288C31.2517 17.9767 31.3804 17.6719 31.6378 17.4145C31.8951 17.1572 32.2744 17.0285 32.7757 17.0285C32.9516 17.0285 33.1547 17.0488 33.3852 17.0895C33.629 17.1165 33.8119 17.1369 33.9338 17.1504C33.9201 16.7983 33.8389 16.4664 33.69 16.1549C33.5544 15.8433 33.3782 15.5453 33.1617 15.2609C32.9449 14.9629 32.7417 14.7056 32.5522 14.4888C32.1322 15.288 31.7123 15.9517 31.2924 16.4799C30.886 17.0082 30.439 17.5094 29.9514 17.9834C29.7076 18.2272 29.4502 18.3491 29.1793 18.3491C28.9626 18.3491 28.7866 18.2746 28.6511 18.1257C28.5156 17.9631 28.4479 17.7667 28.4479 17.5364C28.4479 17.2656 28.5427 17.015 28.7324 16.7847L28.9965 16.4596C29.7415 15.5386 30.3036 14.78 30.6828 14.1841C30.9131 13.7913 31.184 13.2698 31.4955 12.6196C31.8071 11.9559 32.1119 11.2719 32.41 10.5676C32.6671 9.97159 33.2024 9.67359 34.0151 9.67359C34.3941 9.67359 34.6582 9.70746 34.8074 9.77517C34.9563 9.84289 35.0309 9.95127 35.0309 10.1003C35.0309 10.1815 35.0036 10.3102 34.9497 10.4863C34.8954 10.6624 34.8208 10.8384 34.7262 11.0145C34.4824 11.5022 34.3605 11.9153 34.3605 12.2539C34.3605 12.4571 34.4281 12.6806 34.5636 12.9244C34.7125 13.1682 34.936 13.473 35.2341 13.8387C35.6674 14.4076 35.9925 14.8952 36.2093 15.3015C36.4395 15.6943 36.5547 16.1278 36.5547 16.6018C36.5547 16.7373 36.5411 16.9269 36.5141 17.1707C37.1776 16.9134 37.9566 16.2294 38.8506 15.1187C39.0132 14.929 39.196 14.8342 39.3989 14.8342C39.5751 14.8342 39.7106 14.9155 39.8055 15.078C39.9138 15.2406 39.9681 15.4641 39.9681 15.7485C39.9681 16.2632 39.8392 16.6831 39.582 17.0082C38.9046 17.848 38.2544 18.4237 37.6316 18.7352C37.022 19.0332 36.2633 19.1957 35.356 19.2228C34.8141 19.6833 34.1706 19.9136 33.4259 19.9136ZM53.7382 14.8342C53.9144 14.8342 54.0497 14.9155 54.1446 15.078C54.2528 15.2406 54.3071 15.4641 54.3071 15.7485C54.3071 16.2903 54.1786 16.7102 53.9211 17.0082C53.3386 17.7261 52.702 18.3153 52.0113 18.7758C51.3205 19.2363 50.5281 19.4666 49.6341 19.4666C47.9817 19.4666 46.8303 18.7758 46.1801 17.3942C45.8281 17.9631 45.3608 18.4507 44.7782 18.8571C44.1957 19.2634 43.5728 19.4666 42.909 19.4666C41.6224 19.4666 40.6741 18.9451 40.0646 17.9022C39.4687 16.8456 39.1706 15.4234 39.1706 13.6355C39.1706 12.9718 39.2046 12.2336 39.2722 11.4209H38.4392C38.0328 11.4209 37.7551 11.3464 37.6062 11.1974C37.4706 11.0484 37.403 10.8114 37.403 10.4863C37.403 9.72778 37.7078 9.34851 38.3173 9.34851H39.5566C39.8141 7.91273 40.1728 6.61241 40.6335 5.44756C41.0941 4.2827 41.6493 3.35486 42.2995 2.66406C42.9497 1.97327 43.6541 1.62787 44.4125 1.62787C44.9814 1.62787 45.4284 1.87845 45.7535 2.37962C46.0786 2.88078 46.2411 3.51063 46.2411 4.26914C46.2411 6.17898 45.503 7.8721 44.0265 9.34851H45.8754C46.1328 7.91273 46.4916 6.61241 46.9522 5.44756C47.4128 4.2827 47.9681 3.35486 48.6182 2.66406C49.2684 1.97327 49.9728 1.62787 50.7313 1.62787C51.3001 1.62787 51.7471 1.87845 52.0722 2.37962C52.3973 2.88078 52.5598 3.51063 52.5598 4.26914C52.5598 6.17898 51.8217 7.8721 50.3452 9.34851H52.1941C52.4109 9.34851 52.5665 9.3959 52.6614 9.49073C52.7563 9.58556 52.8036 9.76162 52.8036 10.019C52.8036 10.9536 52.0382 11.4209 50.5078 11.4209H48.0493C48.0087 12.071 47.9884 12.7348 47.9884 13.412C47.9884 14.8207 48.1509 15.8095 48.476 16.3783C48.8147 16.9472 49.343 17.2317 50.0608 17.2317C50.6433 17.2317 51.1579 17.0556 51.6049 16.7034C52.0519 16.3513 52.5801 15.823 53.1897 15.1187C53.3522 14.929 53.5351 14.8342 53.7382 14.8342ZM43.864 3.57835C43.6608 3.57835 43.4306 3.83571 43.1732 4.35041C42.9293 4.85159 42.6922 5.5559 42.462 6.46343C42.2452 7.3574 42.0624 8.35295 41.9135 9.4501C42.7125 8.7593 43.3087 7.98724 43.7014 7.1339C44.1078 6.26702 44.3109 5.48143 44.3109 4.77708C44.3109 3.97794 44.162 3.57835 43.864 3.57835ZM50.1827 3.57835C49.9795 3.57835 49.7494 3.83571 49.4919 4.35041C49.2481 4.85159 49.0109 5.5559 48.7808 6.46343C48.564 7.3574 48.3811 8.35295 48.2322 9.4501C49.0313 8.7593 49.6274 7.98724 50.0201 7.1339C50.4265 6.26702 50.6297 5.48143 50.6297 4.77708C50.6297 3.97794 50.4808 3.57835 50.1827 3.57835ZM43.3357 17.2317C43.7421 17.2317 44.1484 17.0421 44.5547 16.6628C44.9611 16.2835 45.3065 15.8162 45.5909 15.2609C45.5233 14.841 45.4893 14.2992 45.4893 13.6355C45.4893 12.9718 45.5233 12.2336 45.5909 11.4209H41.7306C41.69 12.071 41.6697 12.7348 41.6697 13.412C41.6697 14.78 41.8119 15.7621 42.0963 16.358C42.3944 16.9405 42.8074 17.2317 43.3357 17.2317ZM60.8709 12.6806C61.1687 12.6806 61.4195 12.7889 61.6227 13.0057C61.8392 13.2088 61.9474 13.4662 61.9474 13.7777C61.9474 13.9538 61.9071 14.1434 61.8259 14.3466C61.609 14.8478 61.3043 15.2677 60.9116 15.6063C60.5186 15.9449 60.0852 16.1142 59.6113 16.1142C59.2319 16.1142 58.9068 15.9788 58.636 15.7079C58.3786 15.437 58.25 15.0713 58.25 14.6107C58.25 14.3534 58.2633 14.0757 58.2906 13.7777C58.3176 13.561 58.3313 13.412 58.3313 13.3307C58.3313 13.2224 58.304 13.1411 58.25 13.0869C58.2094 13.0327 58.1551 13.0057 58.0874 13.0057C57.8976 13.0057 57.6405 13.2359 57.3154 13.6964C56.9903 14.1434 56.6652 14.7394 56.3401 15.4844C56.0151 16.2294 55.7509 17.015 55.5478 17.8412C55.3986 18.4914 55.2294 18.9248 55.0398 19.1415C54.85 19.3583 54.5386 19.4666 54.1052 19.4666C53.5903 19.4666 53.2246 19.1957 53.0081 18.6539C52.8049 18.1121 52.7033 17.2452 52.7033 16.0533C52.7033 14.2924 52.9538 12.6196 53.4551 11.0349C53.577 10.6421 53.7732 10.3576 54.0443 10.1815C54.3287 9.9919 54.7214 9.89708 55.2227 9.89708C55.4935 9.89708 55.683 9.93095 55.7916 9.99867C55.8998 10.0664 55.9541 10.1951 55.9541 10.3847C55.9541 10.6014 55.8525 11.089 55.6493 11.8476C55.5138 12.3894 55.4055 12.8634 55.3243 13.2698C55.243 13.6761 55.1751 14.1773 55.1211 14.7733C55.5681 13.6084 56.069 12.6603 56.6246 11.9288C57.1798 11.1974 57.7217 10.6759 58.25 10.3644C58.7782 10.0529 59.2589 9.89708 59.6925 9.89708C60.0852 9.89708 60.3833 10.0122 60.5865 10.2425C60.803 10.4592 60.9116 10.7843 60.9116 11.2177C60.9116 11.4751 60.837 11.9627 60.6881 12.6806H60.8709Z" fill="#F2F3FC"/>
</svg>
