<svg width="196" height="63" viewBox="0 0 196 63" fill="none" xmlns="http://www.w3.org/2000/svg">
<path d="M24.992 61.32C19.9147 61.32 15.4987 60.4027 11.744 58.568C7.98933 56.6907 5.10933 54.0453 3.104 50.632C1.09867 47.2187 0.0960002 43.2507 0.0960002 38.728C0.0960002 32.456 1.26933 26.888 3.616 22.024C6.00533 17.16 9.22667 13.4053 13.28 10.76C17.3333 8.072 21.8347 6.728 26.784 6.728C31.392 6.728 34.8907 7.92266 37.28 10.312C39.6693 12.6587 40.864 15.7733 40.864 19.656C40.864 22.2587 40.3947 24.3493 39.456 25.928C38.56 27.5067 37.2587 28.296 35.552 28.296C34.3573 28.296 33.4187 28.0187 32.736 27.464C32.0533 26.9093 31.712 26.0987 31.712 25.032C31.712 24.648 31.7973 23.944 31.968 22.92C32.224 21.64 32.352 20.616 32.352 19.848C32.352 15.9653 30.2827 14.024 26.144 14.024C23.328 14.024 20.64 14.9413 18.08 16.776C15.52 18.6107 13.4507 21.32 11.872 24.904C10.2933 28.4453 9.504 32.6693 9.504 37.576C9.504 42.696 10.9333 46.664 13.792 49.48C16.6507 52.2533 20.8747 53.64 26.464 53.64C29.2373 53.64 32.032 53.2987 34.848 52.616C37.7067 51.8907 40.864 50.8027 44.32 49.352C44.96 49.096 45.4933 48.968 45.92 48.968C46.6027 48.968 47.1147 49.224 47.456 49.736C47.7973 50.248 47.968 50.9093 47.968 51.72C47.968 54.3227 46.56 56.2427 43.744 57.48C40.7147 58.8027 37.5573 59.784 34.272 60.424C31.0293 61.0213 27.936 61.32 24.992 61.32ZM67.203 46.728C67.7577 46.728 68.1843 46.984 68.483 47.496C68.8243 48.008 68.995 48.712 68.995 49.608C68.995 51.3147 68.5897 52.6373 67.779 53.576C65.9443 55.8373 63.939 57.6933 61.763 59.144C59.6297 60.5947 57.1977 61.32 54.467 61.32C50.7123 61.32 47.9177 59.6133 46.083 56.2C44.291 52.7867 43.395 48.3707 43.395 42.952C43.395 37.7467 44.0563 31.816 45.379 25.16C46.7443 18.504 48.7283 12.7867 51.331 8.008C53.9763 3.22933 57.1123 0.839996 60.739 0.839996C62.787 0.839996 64.387 1.8 65.539 3.72C66.7337 5.59733 67.331 8.30667 67.331 11.848C67.331 16.9253 65.923 22.8133 63.107 29.512C60.291 36.2107 56.4723 42.8453 51.651 49.416C51.9497 51.1653 52.4403 52.424 53.123 53.192C53.8057 53.9173 54.7017 54.28 55.811 54.28C57.5603 54.28 59.0963 53.7893 60.419 52.808C61.7417 51.784 63.427 50.056 65.475 47.624C65.987 47.0267 66.563 46.728 67.203 46.728ZM59.331 7.176C58.3497 7.176 57.2403 8.94667 56.003 12.488C54.7657 16.0293 53.6777 20.424 52.739 25.672C51.8003 30.92 51.2883 35.9547 51.203 40.776C54.2323 35.784 56.643 30.792 58.435 25.8C60.227 20.7653 61.123 16.1787 61.123 12.04C61.123 8.79733 60.5257 7.176 59.331 7.176ZM70.35 61.32C68.43 61.32 66.8513 60.4453 65.614 58.696C64.4193 56.904 63.822 54.6853 63.822 52.04C63.822 48.84 64.0353 45.9173 64.462 43.272C64.8887 40.584 65.5927 37.7467 66.574 34.76C67.0007 33.48 67.598 32.5627 68.366 32.008C69.134 31.4533 70.35 31.176 72.014 31.176C72.9527 31.176 73.5927 31.3253 73.934 31.624C74.318 31.9227 74.51 32.3707 74.51 32.968C74.51 33.3093 74.2753 34.4613 73.806 36.424C73.3793 38.0027 73.038 39.432 72.782 40.712C71.9287 45.192 71.502 48.1787 71.502 49.672C71.502 50.568 71.6087 51.208 71.822 51.592C72.0353 51.9333 72.3767 52.104 72.846 52.104C73.486 52.104 74.2753 51.464 75.214 50.184C76.1953 48.904 77.2193 46.9627 78.286 44.36C79.3953 41.7573 80.462 38.5573 81.486 34.76C81.8273 33.48 82.3393 32.5627 83.022 32.008C83.7473 31.4533 84.814 31.176 86.222 31.176C87.2033 31.176 87.886 31.304 88.27 31.56C88.654 31.7733 88.846 32.2 88.846 32.84C88.846 33.9067 88.3127 36.8293 87.246 41.608C86.0513 47.0693 85.454 50.44 85.454 51.72C85.454 52.5307 85.6247 53.1707 85.966 53.64C86.3073 54.0667 86.7553 54.28 87.31 54.28C88.1633 54.28 89.166 53.768 90.318 52.744C91.5127 51.6773 93.0913 49.9707 95.054 47.624C95.566 47.0267 96.142 46.728 96.782 46.728C97.3367 46.728 97.7633 46.984 98.062 47.496C98.4033 48.008 98.574 48.712 98.574 49.608C98.574 51.3147 98.1687 52.6373 97.358 53.576C95.5233 55.8373 93.5393 57.6933 91.406 59.144C89.3153 60.5947 86.926 61.32 84.238 61.32C82.19 61.32 80.6753 60.5307 79.694 58.952C78.7553 57.3733 78.286 55.1547 78.286 52.296C77.5607 55.1973 76.4727 57.4373 75.022 59.016C73.5713 60.552 72.014 61.32 70.35 61.32ZM105.289 62.728C103.07 62.728 101.363 62.216 100.169 61.192C99.0165 60.168 98.4405 59.016 98.4405 57.736C98.4405 56.6267 98.8458 55.6667 99.6565 54.856C100.467 54.0453 101.662 53.64 103.241 53.64C103.795 53.64 104.435 53.704 105.161 53.832C105.929 53.9173 106.505 53.9813 106.889 54.024C106.846 52.9147 106.59 51.8693 106.121 50.888C105.694 49.9067 105.139 48.968 104.457 48.072C103.774 47.1333 103.134 46.3227 102.537 45.64C101.214 48.1573 99.8912 50.248 98.5685 51.912C97.2885 53.576 95.8805 55.1547 94.3445 56.648C93.5765 57.416 92.7658 57.8 91.9125 57.8C91.2298 57.8 90.6752 57.5653 90.2485 57.096C89.8218 56.584 89.6085 55.9653 89.6085 55.24C89.6085 54.3867 89.9072 53.5973 90.5045 52.872L91.3365 51.848C93.6832 48.9467 95.4538 46.5573 96.6485 44.68C97.3738 43.4427 98.2272 41.8 99.2085 39.752C100.19 37.6613 101.15 35.5067 102.089 33.288C102.899 31.4107 104.585 30.472 107.145 30.472C108.339 30.472 109.171 30.5787 109.641 30.792C110.11 31.0053 110.345 31.3467 110.345 31.816C110.345 32.072 110.259 32.4773 110.089 33.032C109.918 33.5867 109.683 34.1413 109.385 34.696C108.617 36.232 108.233 37.5333 108.233 38.6C108.233 39.24 108.446 39.944 108.873 40.712C109.342 41.48 110.046 42.44 110.985 43.592C112.35 45.384 113.374 46.92 114.057 48.2C114.782 49.4373 115.145 50.8027 115.145 52.296C115.145 52.7227 115.102 53.32 115.017 54.088C117.107 53.2773 119.561 51.1227 122.377 47.624C122.889 47.0267 123.465 46.728 124.104 46.728C124.659 46.728 125.086 46.984 125.385 47.496C125.726 48.008 125.897 48.712 125.897 49.608C125.897 51.2293 125.491 52.552 124.681 53.576C122.547 56.2213 120.499 58.0347 118.537 59.016C116.617 59.9547 114.227 60.4667 111.369 60.552C109.662 62.0027 107.635 62.728 105.289 62.728ZM169.273 46.728C169.828 46.728 170.254 46.984 170.553 47.496C170.894 48.008 171.065 48.712 171.065 49.608C171.065 51.3147 170.66 52.6373 169.849 53.576C168.014 55.8373 166.009 57.6933 163.833 59.144C161.657 60.5947 159.161 61.32 156.345 61.32C151.14 61.32 147.513 59.144 145.465 54.792C144.356 56.584 142.884 58.12 141.049 59.4C139.214 60.68 137.252 61.32 135.161 61.32C131.108 61.32 128.121 59.6773 126.201 56.392C124.324 53.064 123.385 48.584 123.385 42.952C123.385 40.8613 123.492 38.536 123.705 35.976H121.081C119.801 35.976 118.926 35.7413 118.457 35.272C118.03 34.8027 117.817 34.056 117.817 33.032C117.817 30.6427 118.777 29.448 120.697 29.448H124.601C125.412 24.9253 126.542 20.8293 127.993 17.16C129.444 13.4907 131.193 10.568 133.241 8.392C135.289 6.216 137.508 5.128 139.897 5.128C141.689 5.128 143.097 5.91733 144.121 7.496C145.145 9.07467 145.657 11.0587 145.657 13.448C145.657 19.464 143.332 24.7973 138.681 29.448H144.505C145.316 24.9253 146.446 20.8293 147.897 17.16C149.348 13.4907 151.097 10.568 153.145 8.392C155.193 6.216 157.412 5.128 159.801 5.128C161.593 5.128 163.001 5.91733 164.025 7.496C165.049 9.07467 165.561 11.0587 165.561 13.448C165.561 19.464 163.236 24.7973 158.585 29.448H164.409C165.092 29.448 165.582 29.5973 165.881 29.896C166.18 30.1947 166.329 30.7493 166.329 31.56C166.329 34.504 163.918 35.976 159.097 35.976H151.353C151.225 38.024 151.161 40.1147 151.161 42.248C151.161 46.6853 151.673 49.8 152.697 51.592C153.764 53.384 155.428 54.28 157.689 54.28C159.524 54.28 161.145 53.7253 162.553 52.616C163.961 51.5067 165.625 49.8427 167.545 47.624C168.057 47.0267 168.633 46.728 169.273 46.728ZM138.169 11.272C137.529 11.272 136.804 12.0827 135.993 13.704C135.225 15.2827 134.478 17.5013 133.753 20.36C133.07 23.176 132.494 26.312 132.025 29.768C134.542 27.592 136.42 25.16 137.657 22.472C138.937 19.7413 139.577 17.2667 139.577 15.048C139.577 12.5307 139.108 11.272 138.169 11.272ZM158.073 11.272C157.433 11.272 156.708 12.0827 155.897 13.704C155.129 15.2827 154.382 17.5013 153.657 20.36C152.974 23.176 152.398 26.312 151.929 29.768C154.446 27.592 156.324 25.16 157.561 22.472C158.841 19.7413 159.481 17.2667 159.481 15.048C159.481 12.5307 159.012 11.272 158.073 11.272ZM136.505 54.28C137.785 54.28 139.065 53.6827 140.345 52.488C141.625 51.2933 142.713 49.8213 143.609 48.072C143.396 46.7493 143.289 45.0427 143.289 42.952C143.289 40.8613 143.396 38.536 143.609 35.976H131.449C131.321 38.024 131.257 40.1147 131.257 42.248C131.257 46.5573 131.705 49.6507 132.601 51.528C133.54 53.3627 134.841 54.28 136.505 54.28ZM191.741 39.944C192.679 39.944 193.469 40.2853 194.109 40.968C194.791 41.608 195.132 42.4187 195.132 43.4C195.132 43.9547 195.005 44.552 194.749 45.192C194.066 46.7707 193.106 48.0933 191.869 49.16C190.631 50.2267 189.266 50.76 187.773 50.76C186.578 50.76 185.554 50.3333 184.701 49.48C183.89 48.6267 183.485 47.4747 183.485 46.024C183.485 45.2133 183.527 44.3387 183.613 43.4C183.698 42.7173 183.741 42.248 183.741 41.992C183.741 41.6507 183.655 41.3947 183.485 41.224C183.357 41.0533 183.186 40.968 182.973 40.968C182.375 40.968 181.565 41.6933 180.541 43.144C179.517 44.552 178.493 46.4293 177.469 48.776C176.445 51.1227 175.613 53.5973 174.973 56.2C174.503 58.248 173.97 59.6133 173.373 60.296C172.775 60.9787 171.794 61.32 170.429 61.32C168.807 61.32 167.655 60.4667 166.973 58.76C166.333 57.0533 166.013 54.3227 166.013 50.568C166.013 45.0213 166.802 39.752 168.381 34.76C168.765 33.5227 169.383 32.6267 170.237 32.072C171.133 31.4747 172.37 31.176 173.949 31.176C174.802 31.176 175.399 31.2827 175.741 31.496C176.082 31.7093 176.253 32.1147 176.253 32.712C176.253 33.3947 175.933 34.9307 175.293 37.32C174.866 39.0267 174.525 40.52 174.269 41.8C174.013 43.08 173.799 44.6587 173.629 46.536C175.037 42.8667 176.615 39.88 178.365 37.576C180.114 35.272 181.821 33.6293 183.485 32.648C185.149 31.6667 186.663 31.176 188.029 31.176C189.266 31.176 190.205 31.5387 190.845 32.264C191.527 32.9467 191.869 33.9707 191.869 35.336C191.869 36.1467 191.634 37.6827 191.165 39.944H191.741Z" fill="#1E1E1E"/>
</svg>
