<svg width="174" height="158" viewBox="0 0 174 158" fill="none" xmlns="http://www.w3.org/2000/svg">
<circle cx="76" cy="76" r="76" transform="matrix(-1 0 0 1 171 3)" fill="#892AD3" fill-opacity="0.3"/>
<ellipse cx="64" cy="63.5" rx="64" ry="63.5" transform="matrix(-1 0 0 1 160 16)" fill="#A760DF"/>
<path d="M72.6668 65.2709V94.7292C73.1335 94.6417 73.6293 94.5834 74.1252 94.5834C78.1502 94.5834 81.4168 97.8501 81.4168 101.875C81.4168 102.371 81.3585 102.867 81.271 103.333H110.729C110.642 102.867 110.583 102.371 110.583 101.875C110.583 97.8501 113.85 94.5834 117.875 94.5834C118.371 94.5834 118.867 94.6417 119.333 94.7292V65.2709C118.867 65.3584 118.371 65.4167 117.875 65.4167C113.85 65.4167 110.583 62.1501 110.583 58.1251C110.583 57.6292 110.642 57.1334 110.729 56.6667H81.271C81.3585 57.1334 81.4168 57.6292 81.4168 58.1251C81.4168 62.1501 78.1502 65.4167 74.1252 65.4167C73.6293 65.4167 73.1335 65.3584 72.6668 65.2709Z" stroke="white" stroke-width="1.5" stroke-linecap="round" stroke-linejoin="round"/>
<path d="M110.583 58.1249C110.583 62.1499 113.85 65.4166 117.875 65.4166C118.371 65.4166 118.867 65.3583 119.333 65.2708C122.658 64.5999 125.167 61.6541 125.167 58.1249C125.167 54.0999 121.9 50.8333 117.875 50.8333C114.346 50.8333 111.4 53.3416 110.729 56.6666C110.642 57.1333 110.583 57.6291 110.583 58.1249Z" stroke="white" stroke-width="1.5" stroke-linecap="round" stroke-linejoin="round"/>
<path d="M66.8332 58.1249C66.8332 61.6541 69.3415 64.5999 72.6665 65.2708C73.1332 65.3583 73.629 65.4166 74.1248 65.4166C78.1498 65.4166 81.4165 62.1499 81.4165 58.1249C81.4165 57.6291 81.3582 57.1333 81.2707 56.6666C80.5998 53.3416 77.654 50.8333 74.1248 50.8333C70.0998 50.8333 66.8332 54.0999 66.8332 58.1249Z" stroke="white" stroke-width="1.5" stroke-linecap="round" stroke-linejoin="round"/>
<path d="M110.583 101.875C110.583 102.371 110.642 102.867 110.729 103.333C111.4 106.658 114.346 109.167 117.875 109.167C121.9 109.167 125.167 105.9 125.167 101.875C125.167 98.3458 122.658 95.3999 119.333 94.7291C118.867 94.6416 118.371 94.5833 117.875 94.5833C113.85 94.5833 110.583 97.8499 110.583 101.875Z" stroke="white" stroke-width="1.5" stroke-linecap="round" stroke-linejoin="round"/>
<path d="M66.8332 101.875C66.8332 105.9 70.0998 109.167 74.1248 109.167C77.654 109.167 80.5998 106.658 81.2707 103.333C81.3582 102.867 81.4165 102.371 81.4165 101.875C81.4165 97.8499 78.1498 94.5833 74.1248 94.5833C73.629 94.5833 73.1332 94.6416 72.6665 94.7291C69.3415 95.3999 66.8332 98.3458 66.8332 101.875Z" stroke="white" stroke-width="1.5" stroke-linecap="round" stroke-linejoin="round"/>
</svg>
